# xmcd CD database file
#
# Track frame offsets:
#	182
#	14550
#	42210
#	59190
#	84707
#	104387
#	125860
#	140492
#	157360
#	172497
#	195350
#	208690
#	232182
#	259077
#	276115
#
# Disc length: 4624 seconds
#
# Revision: 0
# Processed by: cddbd v1.5PL3 Copyright (c) Steve Scherf et al.
# Submitted via: CDex 1.51
#
DISCID=f4120e0f
DTITLE=Mary Lou Williams - Nite Life [CD1]
DYEAR=1999
DGENRE=Jazz
TTITLE0=Nite Life
TTITLE1=Cloudy
TTITLE2=Little Joe From Chicago
TTITLE3=What's Your Story, Morning Glory?
TTITLE4=The Scarlet Creeper
TTITLE5=Scratchin' In The Gravel
TTITLE6=Offertory
TTITLE7=Blues For John
TTITLE8=Marnier Blues
TTITLE9=Gemma
TTITLE10=For The Figs
TTITLE11=Anima Christi #1
TTITLE12=Anima Christi #2
TTITLE13=Chief
TTITLE14=Nite Life Variations - A Swinging Meditation
EXTD=YEAR: 1999
EXTT0=
EXTT1=
EXTT2=
EXTT3=
EXTT4=
EXTT5=
EXTT6=
EXTT7=
EXTT8=
EXTT9=
EXTT10=
EXTT11=
EXTT12=
EXTT13=
EXTT14=
PLAYORDER=
